<?xml version="1.0" standalone="no"?>
<!DOCTYPE svg PUBLIC "-//W3C//DTD SVG 20010904//EN"
 "http://www.w3.org/TR/2001/REC-SVG-20010904/DTD/svg10.dtd">
<svg version="1.0" xmlns="http://www.w3.org/2000/svg"
 width="1280.000000pt" height="640.000000pt" viewBox="0 0 1280.000000 640.000000"
 preserveAspectRatio="xMidYMid meet">
<metadata>
Created by potrace 1.15, written by Peter Selinger 2001-2017
</metadata>
<g transform="translate(0.000000,640.000000) scale(0.100000,-0.100000)"
fill="#000000" stroke="none">
<path d="M10525 6039 c-296 -33 -472 -58 -870 -124 -247 -41 -470 -81 -494
-90 -163 -57 -524 -279 -921 -565 -102 -73 -198 -139 -215 -145 -40 -17 -175
-41 -313 -56 -147 -15 -634 -7 -842 15 -85 9 -326 41 -535 71 -762 109 -1088
133 -1446 104 -339 -27 -813 -141 -1034 -249 -590 -288 -1704 -1369 -2401
-2330 -120 -165 -193 -275 -294 -445 -182 -305 -349 -482 -554 -587 -49 -25
-187 -68 -219 -68 -5 0 5 16 22 35 46 52 82 131 88 189 4 41 0 60 -19 95 -34
63 -82 86 -178 85 -118 0 -214 -52 -267 -142 -25 -42 -28 -57 -28 -137 0 -83
3 -96 37 -168 62 -130 168 -216 317 -261 187 -55 409 50 670 317 136 139 213
231 345 417 94 130 147 212 334 515 217 351 557 752 1076 1270 259 258 634
611 641 603 4 -4 -221 -381 -308 -515 -95 -147 -169 -311 -407 -898 -224 -554
-311 -739 -383 -817 -32 -35 -106 -55 -238 -67 -158 -13 -172 -24 -219 -176
-56 -181 -77 -238 -125 -350 -68 -156 -86 -237 -92 -410 -9 -230 33 -518 84
-576 7 -9 33 -19 57 -21 63 -7 148 -50 204 -102 64 -60 91 -70 161 -56 73 15
311 131 363 178 23 20 49 55 59 77 25 53 25 141 1 180 -26 42 -103 81 -208
106 -131 31 -150 41 -164 85 -26 78 13 337 58 388 9 10 70 49 134 87 139 82
230 154 291 229 63 79 93 99 278 188 127 61 225 120 434 259 282 189 576 378
1053 678 l284 178 55 -54 c30 -30 100 -105 156 -167 278 -311 433 -547 546
-831 84 -210 88 -276 24 -369 -71 -101 -82 -185 -38 -272 53 -104 253 -288
478 -440 132 -89 176 -138 247 -276 31 -60 67 -116 82 -127 42 -31 131 -35
194 -8 41 18 56 20 78 11 37 -14 108 -13 143 2 52 22 93 69 93 105 0 69 -46
119 -281 306 -341 271 -429 428 -407 730 8 113 30 211 88 392 72 227 109 465
97 633 -3 45 -4 82 -2 82 1 0 153 -69 337 -154 222 -103 332 -159 330 -168 -2
-7 -17 -75 -33 -152 -46 -223 -54 -350 -41 -619 18 -350 16 -446 -13 -593 -50
-253 -33 -318 118 -432 41 -31 123 -98 181 -149 58 -51 124 -102 145 -113 56
-28 129 -26 216 6 39 15 102 30 141 34 120 14 204 74 204 146 0 64 -45 129
-199 288 -172 177 -185 202 -185 346 0 160 46 278 228 585 49 83 134 238 189
345 54 107 100 196 101 197 2 2 77 -1 168 -7 109 -6 192 -16 244 -30 120 -32
189 -35 293 -15 85 16 92 16 136 0 56 -22 169 -16 290 15 43 11 79 19 80 18 1
-2 16 -33 33 -70 51 -112 141 -186 248 -205 47 -8 126 -3 170 11 17 5 27 -2
49 -36 71 -108 280 -302 655 -609 174 -142 280 -240 471 -434 136 -137 265
-273 288 -302 49 -63 75 -82 124 -90 30 -4 47 -17 79 -54 37 -44 45 -49 83
-49 22 0 97 -14 166 -32 94 -24 146 -32 216 -33 86 0 94 2 135 30 54 39 115
118 129 169 23 84 -48 227 -145 293 -60 41 -87 41 -184 2 -131 -53 -195 -38
-292 68 -133 145 -175 219 -435 778 -188 404 -258 544 -301 602 -39 51 -35 64
58 184 95 124 139 227 165 394 9 55 25 111 34 125 20 29 34 81 44 160 l6 55
67 1 c49 1 91 10 157 33 69 25 104 33 152 31 67 -1 108 14 140 52 10 13 57 42
103 65 103 51 201 129 224 176 12 27 16 65 16 166 0 150 8 180 63 228 67 59
149 61 189 5 30 -43 170 -86 284 -86 94 -1 158 30 191 93 28 53 31 154 8 240
l-14 54 34 40 c39 45 70 119 80 192 5 33 17 61 36 82 35 41 54 100 45 146 -12
63 -76 106 -384 260 l-284 141 -45 63 c-24 34 -65 81 -91 104 -53 46 -184 120
-313 175 l-86 37 19 56 c29 81 22 175 -16 225 -59 78 -160 120 -409 172 -160
34 -187 37 -377 39 -113 2 -241 -1 -285 -6z"/>
</g>
</svg>
